<svg xmlns="http://www.w3.org/2000/svg" viewBox="0 0 1000 2523" width="190mm" height="479.37mm" font-family="'Segoe UI', system-ui, -apple-system, 'Helvetica Neue', sans-serif">
<title>DenoiseMamba — detailed architecture</title>
<defs>
  <linearGradient id="fp-header" x1="0" y1="0" x2="0" y2="1">
    <stop offset="0" stop-color="#0f2537"/><stop offset="1" stop-color="#2f6d94"/>
  </linearGradient>
  <linearGradient id="fp-bg" x1="0" y1="0" x2="1" y2="1">
    <stop offset="0" stop-color="#ffffff"/><stop offset="1" stop-color="#eef6fb"/>
  </linearGradient>
  <pattern id="fp-grid" width="40" height="40" patternUnits="userSpaceOnUse">
    <path d="M40 0 L0 0 0 40" fill="none" stroke="#173147" stroke-opacity="0.045" stroke-width="1"/>
  </pattern>
  <filter id="fp-shadow" x="-20%" y="-20%" width="140%" height="140%">
    <feDropShadow dx="0" dy="4" stdDeviation="7" flood-color="#0f2537" flood-opacity="0.13"/>
  </filter>
  <marker id="fp-arrow" markerWidth="12" markerHeight="12" refX="9" refY="5" orient="auto">
    <path d="M1 1 L9 5 L1 9" fill="none" stroke="#173147" stroke-opacity="0.7" stroke-width="1.5"/>
  </marker>
  <marker id="fp-arrow-open" markerWidth="13" markerHeight="12" refX="10" refY="5" orient="auto">
    <path d="M1 1 L10 5 L1 9" fill="none" stroke="#173147" stroke-opacity="0.6" stroke-width="1.3"/>
  </marker>
  <marker id="fp-diamond" markerWidth="18" markerHeight="12" refX="1" refY="5" orient="auto">
    <path d="M1 5 L8 1.5 L15 5 L8 8.5 Z" fill="#173147" fill-opacity="0.75" stroke="#173147" stroke-width="1"/>
  </marker>
  <marker id="fp-diamond-open" markerWidth="18" markerHeight="12" refX="1" refY="5" orient="auto">
    <path d="M1 5 L8 1.5 L15 5 L8 8.5 Z" fill="#ffffff" stroke="#173147" stroke-width="1.3"/>
  </marker>
  <marker id="fp-triangle" markerWidth="16" markerHeight="14" refX="13" refY="6" orient="auto">
    <path d="M1 1 L13 6 L1 11 Z" fill="#ffffff" stroke="#173147" stroke-width="1.4"/>
  </marker>
</defs>
<rect x="0" y="0" width="1000" height="2523" fill="url(#fp-grid)"/>
<polyline points="500.0,200 500.0,228 500.0,228 500.0,344" fill="none" stroke="#173147" stroke-opacity="0.55" stroke-width="1.5" marker-end="url(#fp-arrow)"/>
<polyline points="487.0,450 487.0,478 500.0,478 500.0,594" fill="none" stroke="#173147" stroke-opacity="0.55" stroke-width="1.5" marker-end="url(#fp-arrow)"/>
<polyline points="487.0,724 487.0,752 320.0,752 320.0,868" fill="none" stroke="#173147" stroke-opacity="0.55" stroke-width="1.5" marker-end="url(#fp-arrow)"/>
<polyline points="513.0,724 513.0,776 680.0,776 680.0,868" fill="none" stroke="#173147" stroke-opacity="0.55" stroke-width="1.5" marker-end="url(#fp-arrow)"/>
<polyline points="320.0,1143 320.0,1171 474.0,1171 474.0,1287" fill="none" stroke="#173147" stroke-opacity="0.55" stroke-width="1.5" marker-end="url(#fp-arrow)"/>
<polyline points="680.0,998 680.0,1171 500.0,1171 500.0,1287" fill="none" stroke="#173147" stroke-opacity="0.55" stroke-width="1.5" marker-end="url(#fp-arrow)"/>
<polyline points="513.0,450 513.0,498 30,498 30,1219 526.0,1219 526.0,1287" fill="none" stroke="#173147" stroke-opacity="0.55" stroke-width="1.5" marker-end="url(#fp-arrow)"/>
<polyline points="500.0,1417 500.0,1445 500.0,1445 500.0,1561" fill="none" stroke="#173147" stroke-opacity="0.55" stroke-width="1.5" marker-end="url(#fp-arrow)"/>
<text x="40" y="38" font-family="'Segoe UI', system-ui, -apple-system, 'Helvetica Neue', sans-serif" font-size="27" fill="#173147" font-weight="600">DenoiseMamba · Thesis model</text>
<text x="40" y="70" font-family="'Segoe UI', system-ui, -apple-system, 'Helvetica Neue', sans-serif" font-size="17" fill="#5b7488">Detailed architecture · numbered relationships below</text>
<polyline points="790.0,65.0 792.7,65.0 795.3,65.0 798.0,65.0 800.7,65.0 803.3,65.0 806.0,65.0 808.7,65.0 811.3,65.0 814.0,65.0 816.7,65.0 819.3,65.0 822.0,65.0 824.7,65.0 827.3,65.0 830.0,65.0 832.7,62.0 835.3,59.8 838.0,59.0 840.7,59.8 843.3,62.0 846.0,65.0 848.7,68.0 851.3,70.2 854.0,71.0 856.7,70.2 859.3,68.0 862.0,65.0 864.7,62.0 867.3,59.8 870.0,59.0 872.7,59.8 875.3,62.0 878.0,65.0 880.7,54.8 883.3,46.2 886.0,40.7 888.7,39.0 891.3,41.5 894.0,47.8 896.7,56.8 899.3,65.0 902.0,65.0 904.7,65.0 907.3,65.0 910.0,65.0 912.7,65.0 915.3,65.0 918.0,65.0 920.7,65.0 923.3,65.0 926.0,65.0 928.7,65.0 931.3,65.0 934.0,65.0 936.7,65.0 939.3,65.0 942.0,65.0 944.7,65.0 947.3,65.0 950.0,65.0" fill="none" stroke="#7eb8d2" stroke-opacity="0.9" stroke-width="2" stroke-linejoin="round"/>
<rect x="220" y="98" width="560" height="98" rx="12" fill="#ffffff" stroke="#173147" stroke-opacity="0.16" stroke-width="1.25" filter="url(#fp-shadow)"/><path d="M220 110 A12 12 0 0 1 232 98 L768 98 A12 12 0 0 1 780 110 L780 145 L220 145 Z" fill="url(#fp-header)"/><circle cx="241" cy="122" r="4.5" fill="#aedbec" stroke="#ffffff" stroke-opacity="0.85" stroke-width="1.2"/><text x="260" y="127" font-family="'Segoe UI', system-ui, -apple-system, 'Helvetica Neue', sans-serif" font-size="21" fill="#ffffff" font-weight="600">Single-channel waveform</text><text x="238" y="173" font-family="'Segoe UI', system-ui, -apple-system, 'Helvetica Neue', sans-serif" font-size="18" fill="#173147">Batch x 1 x samples.</text>
<rect x="220" y="348" width="560" height="98" rx="12" fill="#ffffff" stroke="#173147" stroke-opacity="0.16" stroke-width="1.25" filter="url(#fp-shadow)"/><path d="M220 360 A12 12 0 0 1 232 348 L768 348 A12 12 0 0 1 780 360 L780 395 L220 395 Z" fill="url(#fp-header)"/><circle cx="241" cy="372" r="4.5" fill="#aedbec" stroke="#ffffff" stroke-opacity="0.85" stroke-width="1.2"/><text x="260" y="377" font-family="'Segoe UI', system-ui, -apple-system, 'Helvetica Neue', sans-serif" font-size="21" fill="#ffffff" font-weight="600">Input projection</text><text x="238" y="423" font-family="'Segoe UI', system-ui, -apple-system, 'Helvetica Neue', sans-serif" font-size="18" fill="#173147">1x1 Conv1d; transpose into a temporal token sequence.</text>
<rect x="220" y="598" width="560" height="122" rx="12" fill="#ffffff" stroke="#173147" stroke-opacity="0.16" stroke-width="1.25" filter="url(#fp-shadow)"/><path d="M220 610 A12 12 0 0 1 232 598 L768 598 A12 12 0 0 1 780 610 L780 645 L220 645 Z" fill="url(#fp-header)"/><circle cx="241" cy="622" r="4.5" fill="#aedbec" stroke="#ffffff" stroke-opacity="0.85" stroke-width="1.2"/><text x="260" y="627" font-family="'Segoe UI', system-ui, -apple-system, 'Helvetica Neue', sans-serif" font-size="21" fill="#ffffff" font-weight="600">Begin repeated Mamba block</text><text x="238" y="673" font-family="'Segoe UI', system-ui, -apple-system, 'Helvetica Neue', sans-serif" font-size="18" fill="#173147">LayerNorm and input projection split features into signal</text><text x="238" y="697" font-family="'Segoe UI', system-ui, -apple-system, 'Helvetica Neue', sans-serif" font-size="18" fill="#173147">and gate.</text>
<rect x="170" y="872" width="300" height="267" rx="12" fill="#ffffff" stroke="#173147" stroke-opacity="0.16" stroke-width="1.25" filter="url(#fp-shadow)"/><path d="M170 884 A12 12 0 0 1 182 872 L458 872 A12 12 0 0 1 470 884 L470 944 L170 944 Z" fill="url(#fp-header)"/><circle cx="191" cy="896" r="4.5" fill="#aedbec" stroke="#ffffff" stroke-opacity="0.85" stroke-width="1.2"/><text x="210" y="901" font-family="'Segoe UI', system-ui, -apple-system, 'Helvetica Neue', sans-serif" font-size="21" fill="#ffffff" font-weight="600">Signal and selective</text><text x="210" y="926" font-family="'Segoe UI', system-ui, -apple-system, 'Helvetica Neue', sans-serif" font-size="21" fill="#ffffff" font-weight="600">scan</text><text x="188" y="972" font-family="'Segoe UI', system-ui, -apple-system, 'Helvetica Neue', sans-serif" font-size="18" fill="#173147">Causal depthwise Conv1d</text><text x="188" y="996" font-family="'Segoe UI', system-ui, -apple-system, 'Helvetica Neue', sans-serif" font-size="18" fill="#173147">and SiLU.</text><text x="188" y="1020" font-family="'Segoe UI', system-ui, -apple-system, 'Helvetica Neue', sans-serif" font-size="18" fill="#173147">Sequential selective scan</text><text x="188" y="1044" font-family="'Segoe UI', system-ui, -apple-system, 'Helvetica Neue', sans-serif" font-size="18" fill="#173147">with input-dependent step, B</text><text x="188" y="1068" font-family="'Segoe UI', system-ui, -apple-system, 'Helvetica Neue', sans-serif" font-size="18" fill="#173147">and C.</text><text x="188" y="1092" font-family="'Segoe UI', system-ui, -apple-system, 'Helvetica Neue', sans-serif" font-size="18" fill="#173147">The scan includes its</text><text x="188" y="1116" font-family="'Segoe UI', system-ui, -apple-system, 'Helvetica Neue', sans-serif" font-size="18" fill="#173147">learned D shortcut.</text>
<rect x="530" y="872" width="300" height="122" rx="12" fill="#ffffff" stroke="#173147" stroke-opacity="0.16" stroke-width="1.25" filter="url(#fp-shadow)"/><path d="M530 884 A12 12 0 0 1 542 872 L818 872 A12 12 0 0 1 830 884 L830 919 L530 919 Z" fill="url(#fp-header)"/><circle cx="551" cy="896" r="4.5" fill="#aedbec" stroke="#ffffff" stroke-opacity="0.85" stroke-width="1.2"/><text x="570" y="901" font-family="'Segoe UI', system-ui, -apple-system, 'Helvetica Neue', sans-serif" font-size="21" fill="#ffffff" font-weight="600">Gate branch</text><text x="548" y="947" font-family="'Segoe UI', system-ui, -apple-system, 'Helvetica Neue', sans-serif" font-size="18" fill="#173147">Apply SiLU to the projected</text><text x="548" y="971" font-family="'Segoe UI', system-ui, -apple-system, 'Helvetica Neue', sans-serif" font-size="18" fill="#173147">gate features.</text>
<rect x="220" y="1291" width="560" height="122" rx="12" fill="#ffffff" stroke="#173147" stroke-opacity="0.16" stroke-width="1.25" filter="url(#fp-shadow)"/><path d="M220 1303 A12 12 0 0 1 232 1291 L768 1291 A12 12 0 0 1 780 1303 L780 1338 L220 1338 Z" fill="url(#fp-header)"/><circle cx="241" cy="1315" r="4.5" fill="#aedbec" stroke="#ffffff" stroke-opacity="0.85" stroke-width="1.2"/><text x="260" y="1320" font-family="'Segoe UI', system-ui, -apple-system, 'Helvetica Neue', sans-serif" font-size="21" fill="#ffffff" font-weight="600">Gate and residual update</text><text x="238" y="1366" font-family="'Segoe UI', system-ui, -apple-system, 'Helvetica Neue', sans-serif" font-size="18" fill="#173147">Multiply scan output by the SiLU gate.</text><text x="238" y="1390" font-family="'Segoe UI', system-ui, -apple-system, 'Helvetica Neue', sans-serif" font-size="18" fill="#173147">Dropout and linear projection; add the block input.</text>
<rect x="220" y="1565" width="560" height="146" rx="12" fill="#ffffff" stroke="#173147" stroke-opacity="0.16" stroke-width="1.25" filter="url(#fp-shadow)"/><path d="M220 1577 A12 12 0 0 1 232 1565 L768 1565 A12 12 0 0 1 780 1577 L780 1612 L220 1612 Z" fill="url(#fp-header)"/><circle cx="241" cy="1589" r="4.5" fill="#aedbec" stroke="#ffffff" stroke-opacity="0.85" stroke-width="1.2"/><text x="260" y="1594" font-family="'Segoe UI', system-ui, -apple-system, 'Helvetica Neue', sans-serif" font-size="21" fill="#ffffff" font-weight="600">Output projection</text><text x="238" y="1640" font-family="'Segoe UI', system-ui, -apple-system, 'Helvetica Neue', sans-serif" font-size="18" fill="#173147">After all configured blocks: LayerNorm, transpose and</text><text x="238" y="1664" font-family="'Segoe UI', system-ui, -apple-system, 'Helvetica Neue', sans-serif" font-size="18" fill="#173147">1x1 Conv1d.</text><text x="238" y="1688" font-family="'Segoe UI', system-ui, -apple-system, 'Helvetica Neue', sans-serif" font-size="18" fill="#173147">Return the single-channel artifact waveform.</text>
<rect x="486.0" y="201.0" width="28" height="26" rx="7" fill="#eef6fb" stroke="#2f6d94" stroke-width="1"/><text x="500.0" y="220.0" font-family="'Segoe UI', system-ui, -apple-system, 'Helvetica Neue', sans-serif" font-size="17" fill="#173147" font-weight="600" text-anchor="middle">1</text>
<rect x="473.0" y="451.0" width="28" height="26" rx="7" fill="#eef6fb" stroke="#2f6d94" stroke-width="1"/><text x="487.0" y="470.0" font-family="'Segoe UI', system-ui, -apple-system, 'Helvetica Neue', sans-serif" font-size="17" fill="#173147" font-weight="600" text-anchor="middle">2</text>
<rect x="389.5" y="739" width="28" height="26" rx="7" fill="#eef6fb" stroke="#2f6d94" stroke-width="1"/><text x="403.5" y="758" font-family="'Segoe UI', system-ui, -apple-system, 'Helvetica Neue', sans-serif" font-size="17" fill="#173147" font-weight="600" text-anchor="middle">3</text>
<rect x="582.5" y="763" width="28" height="26" rx="7" fill="#eef6fb" stroke="#2f6d94" stroke-width="1"/><text x="596.5" y="782" font-family="'Segoe UI', system-ui, -apple-system, 'Helvetica Neue', sans-serif" font-size="17" fill="#173147" font-weight="600" text-anchor="middle">4</text>
<rect x="383.0" y="1158" width="28" height="26" rx="7" fill="#eef6fb" stroke="#2f6d94" stroke-width="1"/><text x="397.0" y="1177" font-family="'Segoe UI', system-ui, -apple-system, 'Helvetica Neue', sans-serif" font-size="17" fill="#173147" font-weight="600" text-anchor="middle">5</text>
<rect x="576.0" y="1158" width="28" height="26" rx="7" fill="#eef6fb" stroke="#2f6d94" stroke-width="1"/><text x="590.0" y="1177" font-family="'Segoe UI', system-ui, -apple-system, 'Helvetica Neue', sans-serif" font-size="17" fill="#173147" font-weight="600" text-anchor="middle">6</text>
<rect x="16" y="845.5" width="28" height="26" rx="7" fill="#eef6fb" stroke="#2f6d94" stroke-width="1"/><text x="30" y="864.5" font-family="'Segoe UI', system-ui, -apple-system, 'Helvetica Neue', sans-serif" font-size="17" fill="#173147" font-weight="600" text-anchor="middle">7</text>
<rect x="486.0" y="1418.0" width="28" height="26" rx="7" fill="#eef6fb" stroke="#2f6d94" stroke-width="1"/><text x="500.0" y="1437.0" font-family="'Segoe UI', system-ui, -apple-system, 'Helvetica Neue', sans-serif" font-size="17" fill="#173147" font-weight="600" text-anchor="middle">8</text>
<text x="60" y="1867" font-family="'Segoe UI', system-ui, -apple-system, 'Helvetica Neue', sans-serif" font-size="23" fill="#173147" font-weight="600">Relationships</text>
<rect x="60" y="1881" width="28" height="26" rx="7" fill="#eef6fb" stroke="#2f6d94" stroke-width="1"/><text x="74" y="1900" font-family="'Segoe UI', system-ui, -apple-system, 'Helvetica Neue', sans-serif" font-size="17" fill="#173147" font-weight="600" text-anchor="middle">1</text>
<text x="100" y="1899" font-family="'Segoe UI', system-ui, -apple-system, 'Helvetica Neue', sans-serif" font-size="18" fill="#173147">Single-channel waveform → Input projection · flow: Waveform</text>
<rect x="60" y="1918" width="28" height="26" rx="7" fill="#eef6fb" stroke="#2f6d94" stroke-width="1"/><text x="74" y="1937" font-family="'Segoe UI', system-ui, -apple-system, 'Helvetica Neue', sans-serif" font-size="17" fill="#173147" font-weight="600" text-anchor="middle">2</text>
<text x="100" y="1936" font-family="'Segoe UI', system-ui, -apple-system, 'Helvetica Neue', sans-serif" font-size="18" fill="#173147">Input projection → Begin repeated Mamba block · flow: Embedded sequence</text>
<rect x="60" y="1955" width="28" height="26" rx="7" fill="#eef6fb" stroke="#2f6d94" stroke-width="1"/><text x="74" y="1974" font-family="'Segoe UI', system-ui, -apple-system, 'Helvetica Neue', sans-serif" font-size="17" fill="#173147" font-weight="600" text-anchor="middle">3</text>
<text x="100" y="1973" font-family="'Segoe UI', system-ui, -apple-system, 'Helvetica Neue', sans-serif" font-size="18" fill="#173147">Begin repeated Mamba block → Signal and selective scan · flow: Signal features</text>
<rect x="60" y="1992" width="28" height="26" rx="7" fill="#eef6fb" stroke="#2f6d94" stroke-width="1"/><text x="74" y="2011" font-family="'Segoe UI', system-ui, -apple-system, 'Helvetica Neue', sans-serif" font-size="17" fill="#173147" font-weight="600" text-anchor="middle">4</text>
<text x="100" y="2010" font-family="'Segoe UI', system-ui, -apple-system, 'Helvetica Neue', sans-serif" font-size="18" fill="#173147">Begin repeated Mamba block → Gate branch · flow: Gate features</text>
<rect x="60" y="2029" width="28" height="26" rx="7" fill="#eef6fb" stroke="#2f6d94" stroke-width="1"/><text x="74" y="2048" font-family="'Segoe UI', system-ui, -apple-system, 'Helvetica Neue', sans-serif" font-size="17" fill="#173147" font-weight="600" text-anchor="middle">5</text>
<text x="100" y="2047" font-family="'Segoe UI', system-ui, -apple-system, 'Helvetica Neue', sans-serif" font-size="18" fill="#173147">Signal and selective scan → Gate and residual update · merge: Scan output</text>
<rect x="60" y="2066" width="28" height="26" rx="7" fill="#eef6fb" stroke="#2f6d94" stroke-width="1"/><text x="74" y="2085" font-family="'Segoe UI', system-ui, -apple-system, 'Helvetica Neue', sans-serif" font-size="17" fill="#173147" font-weight="600" text-anchor="middle">6</text>
<text x="100" y="2084" font-family="'Segoe UI', system-ui, -apple-system, 'Helvetica Neue', sans-serif" font-size="18" fill="#173147">Gate branch → Gate and residual update · merge: SiLU gate</text>
<rect x="60" y="2103" width="28" height="26" rx="7" fill="#eef6fb" stroke="#2f6d94" stroke-width="1"/><text x="74" y="2122" font-family="'Segoe UI', system-ui, -apple-system, 'Helvetica Neue', sans-serif" font-size="17" fill="#173147" font-weight="600" text-anchor="middle">7</text>
<text x="100" y="2121" font-family="'Segoe UI', system-ui, -apple-system, 'Helvetica Neue', sans-serif" font-size="18" fill="#173147">Input projection → Gate and residual update · skip: Block input; repeated for each block</text>
<rect x="60" y="2140" width="28" height="26" rx="7" fill="#eef6fb" stroke="#2f6d94" stroke-width="1"/><text x="74" y="2159" font-family="'Segoe UI', system-ui, -apple-system, 'Helvetica Neue', sans-serif" font-size="17" fill="#173147" font-weight="600" text-anchor="middle">8</text>
<text x="100" y="2158" font-family="'Segoe UI', system-ui, -apple-system, 'Helvetica Neue', sans-serif" font-size="18" fill="#173147">Gate and residual update → Output projection · flow: Features after all repeated blocks</text>
<text x="60" y="2209" font-family="'Segoe UI', system-ui, -apple-system, 'Helvetica Neue', sans-serif" font-size="23" fill="#173147" font-weight="600">Reading notes</text>
<text x="60" y="2241" font-family="'Segoe UI', system-ui, -apple-system, 'Helvetica Neue', sans-serif" font-size="18" fill="#173147">Dimensions and repeated-block counts are configurable; consult the linked implementation and</text>
<text x="60" y="2266" font-family="'Segoe UI', system-ui, -apple-system, 'Helvetica Neue', sans-serif" font-size="18" fill="#173147">run configuration.</text>
<text x="60" y="2300" font-family="'Segoe UI', system-ui, -apple-system, 'Helvetica Neue', sans-serif" font-size="18" fill="#173147">The split, scan, gate and residual update form one block; that block repeats according to the</text>
<text x="60" y="2325" font-family="'Segoe UI', system-ui, -apple-system, 'Helvetica Neue', sans-serif" font-size="18" fill="#173147">configuration.</text>
<text x="60" y="2377" font-family="'Segoe UI', system-ui, -apple-system, 'Helvetica Neue', sans-serif" font-size="23" fill="#173147" font-weight="600">Implementation sources</text>
<text x="60" y="2407" font-family="'Segoe UI', system-ui, -apple-system, 'Helvetica Neue', sans-serif" font-size="17" fill="#2f6d94">Variant implementation and forward contract:</text>
<text x="60" y="2431" font-family="'Segoe UI', system-ui, -apple-system, 'Helvetica Neue', sans-serif" font-size="17" fill="#2f6d94">src/facet/models/masterthesis/denoise_mamba/training.py</text>
<text x="60" y="2455" font-family="'Segoe UI', system-ui, -apple-system, 'Helvetica Neue', sans-serif" font-size="17" fill="#2f6d94">Pipeline input/output adapter: src/facet/models/masterthesis/denoise_mamba/processor.py</text>
<text x="980" y="2505" font-family="'Segoe UI', system-ui, -apple-system, 'Helvetica Neue', sans-serif" font-size="11" fill="#5b7488" text-anchor="end" fill-opacity="0.8">Made with FACETpy</text>
</svg>
