<svg xmlns="http://www.w3.org/2000/svg" viewBox="0 0 1000 3301" width="190mm" height="627.19mm" font-family="'Segoe UI', system-ui, -apple-system, 'Helvetica Neue', sans-serif">
<title>DHCT-GAN v2 — detailed architecture</title>
<defs>
  <linearGradient id="fp-header" x1="0" y1="0" x2="0" y2="1">
    <stop offset="0" stop-color="#0f2537"/><stop offset="1" stop-color="#2f6d94"/>
  </linearGradient>
  <linearGradient id="fp-bg" x1="0" y1="0" x2="1" y2="1">
    <stop offset="0" stop-color="#ffffff"/><stop offset="1" stop-color="#eef6fb"/>
  </linearGradient>
  <pattern id="fp-grid" width="40" height="40" patternUnits="userSpaceOnUse">
    <path d="M40 0 L0 0 0 40" fill="none" stroke="#173147" stroke-opacity="0.045" stroke-width="1"/>
  </pattern>
  <filter id="fp-shadow" x="-20%" y="-20%" width="140%" height="140%">
    <feDropShadow dx="0" dy="4" stdDeviation="7" flood-color="#0f2537" flood-opacity="0.13"/>
  </filter>
  <marker id="fp-arrow" markerWidth="12" markerHeight="12" refX="9" refY="5" orient="auto">
    <path d="M1 1 L9 5 L1 9" fill="none" stroke="#173147" stroke-opacity="0.7" stroke-width="1.5"/>
  </marker>
  <marker id="fp-arrow-open" markerWidth="13" markerHeight="12" refX="10" refY="5" orient="auto">
    <path d="M1 1 L10 5 L1 9" fill="none" stroke="#173147" stroke-opacity="0.6" stroke-width="1.3"/>
  </marker>
  <marker id="fp-diamond" markerWidth="18" markerHeight="12" refX="1" refY="5" orient="auto">
    <path d="M1 5 L8 1.5 L15 5 L8 8.5 Z" fill="#173147" fill-opacity="0.75" stroke="#173147" stroke-width="1"/>
  </marker>
  <marker id="fp-diamond-open" markerWidth="18" markerHeight="12" refX="1" refY="5" orient="auto">
    <path d="M1 5 L8 1.5 L15 5 L8 8.5 Z" fill="#ffffff" stroke="#173147" stroke-width="1.3"/>
  </marker>
  <marker id="fp-triangle" markerWidth="16" markerHeight="14" refX="13" refY="6" orient="auto">
    <path d="M1 1 L13 6 L1 11 Z" fill="#ffffff" stroke="#173147" stroke-width="1.4"/>
  </marker>
</defs>
<rect x="0" y="0" width="1000" height="3301" fill="url(#fp-grid)"/>
<polyline points="500.0,272 500.0,300 500.0,300 500.0,416" fill="none" stroke="#173147" stroke-opacity="0.55" stroke-width="1.5" marker-end="url(#fp-arrow)"/>
<polyline points="487.0,546 487.0,574 500.0,574 500.0,690" fill="none" stroke="#173147" stroke-opacity="0.55" stroke-width="1.5" marker-end="url(#fp-arrow)"/>
<polyline points="474.0,820 474.0,848 500.0,848 500.0,964" fill="none" stroke="#173147" stroke-opacity="0.55" stroke-width="1.5" marker-end="url(#fp-arrow)"/>
<polyline points="487.0,1094 487.0,1122 307.0,1122 307.0,1238" fill="none" stroke="#173147" stroke-opacity="0.55" stroke-width="1.5" marker-end="url(#fp-arrow)"/>
<polyline points="513.0,1094 513.0,1146 667.0,1146 667.0,1238" fill="none" stroke="#173147" stroke-opacity="0.55" stroke-width="1.5" marker-end="url(#fp-arrow)"/>
<polyline points="500.0,820 500.0,868 30,868 30,1192 333.0,1192 333.0,1238" fill="none" stroke="#173147" stroke-opacity="0.55" stroke-width="1.5" marker-end="url(#fp-arrow)"/>
<polyline points="526.0,820 526.0,890 970,890 970,1192 693.0,1192 693.0,1238" fill="none" stroke="#173147" stroke-opacity="0.55" stroke-width="1.5" marker-end="url(#fp-arrow)"/>
<polyline points="320.0,1440 320.0,1468 474.0,1468 474.0,1584" fill="none" stroke="#173147" stroke-opacity="0.55" stroke-width="1.5" marker-end="url(#fp-arrow)"/>
<polyline points="667.0,1440 667.0,1468 500.0,1468 500.0,1584" fill="none" stroke="#173147" stroke-opacity="0.55" stroke-width="1.5" marker-end="url(#fp-arrow)"/>
<polyline points="513.0,546 513.0,594 53,594 53,1516 526.0,1516 526.0,1584" fill="none" stroke="#173147" stroke-opacity="0.55" stroke-width="1.5" marker-end="url(#fp-arrow)"/>
<polyline points="693.0,1440 693.0,1488 947,1488 947,1834 500.0,1834 500.0,1858" fill="none" stroke="#173147" stroke-opacity="0.55" stroke-width="1.5" marker-end="url(#fp-arrow)"/>
<polyline points="500.0,1988 500.0,2016 500.0,2016 500.0,2132" fill="none" stroke="#173147" stroke-opacity="0.55" stroke-width="1.5" marker-end="url(#fp-arrow)"/>
<text x="40" y="38" font-family="'Segoe UI', system-ui, -apple-system, 'Helvetica Neue', sans-serif" font-size="27" fill="#173147" font-weight="600">DHCT-GAN v2 · Deployment</text>
<text x="40" y="70" font-family="'Segoe UI', system-ui, -apple-system, 'Helvetica Neue', sans-serif" font-size="17" fill="#5b7488">Detailed architecture · numbered relationships below</text>
<polyline points="790.0,65.0 792.7,65.0 795.3,65.0 798.0,65.0 800.7,65.0 803.3,65.0 806.0,65.0 808.7,65.0 811.3,65.0 814.0,65.0 816.7,65.0 819.3,65.0 822.0,65.0 824.7,65.0 827.3,65.0 830.0,65.0 832.7,62.0 835.3,59.8 838.0,59.0 840.7,59.8 843.3,62.0 846.0,65.0 848.7,68.0 851.3,70.2 854.0,71.0 856.7,70.2 859.3,68.0 862.0,65.0 864.7,62.0 867.3,59.8 870.0,59.0 872.7,59.8 875.3,62.0 878.0,65.0 880.7,54.8 883.3,46.2 886.0,40.7 888.7,39.0 891.3,41.5 894.0,47.8 896.7,56.8 899.3,65.0 902.0,65.0 904.7,65.0 907.3,65.0 910.0,65.0 912.7,65.0 915.3,65.0 918.0,65.0 920.7,65.0 923.3,65.0 926.0,65.0 928.7,65.0 931.3,65.0 934.0,65.0 936.7,65.0 939.3,65.0 942.0,65.0 944.7,65.0 947.3,65.0 950.0,65.0" fill="none" stroke="#7eb8d2" stroke-opacity="0.9" stroke-width="2" stroke-linejoin="round"/>
<rect x="220" y="98" width="560" height="170" rx="12" fill="#ffffff" stroke="#173147" stroke-opacity="0.16" stroke-width="1.25" filter="url(#fp-shadow)"/><path d="M220 110 A12 12 0 0 1 232 98 L768 98 A12 12 0 0 1 780 110 L780 145 L220 145 Z" fill="url(#fp-header)"/><circle cx="241" cy="122" r="4.5" fill="#aedbec" stroke="#ffffff" stroke-opacity="0.85" stroke-width="1.2"/><text x="260" y="127" font-family="'Segoe UI', system-ui, -apple-system, 'Helvetica Neue', sans-serif" font-size="21" fill="#ffffff" font-weight="600">Deployment input normalisation</text><text x="238" y="173" font-family="'Segoe UI', system-ui, -apple-system, 'Helvetica Neue', sans-serif" font-size="18" fill="#173147">Demean across configured axes; optionally divide by input</text><text x="238" y="197" font-family="'Segoe UI', system-ui, -apple-system, 'Helvetica Neue', sans-serif" font-size="18" fill="#173147">standard deviation.</text><text x="238" y="221" font-family="'Segoe UI', system-ui, -apple-system, 'Helvetica Neue', sans-serif" font-size="18" fill="#173147">Packing and context axis come from the run</text><text x="238" y="245" font-family="'Segoe UI', system-ui, -apple-system, 'Helvetica Neue', sans-serif" font-size="18" fill="#173147">configuration.</text>
<rect x="220" y="420" width="560" height="122" rx="12" fill="#ffffff" stroke="#173147" stroke-opacity="0.16" stroke-width="1.25" filter="url(#fp-shadow)"/><path d="M220 432 A12 12 0 0 1 232 420 L768 420 A12 12 0 0 1 780 432 L780 467 L220 467 Z" fill="url(#fp-header)"/><circle cx="241" cy="444" r="4.5" fill="#aedbec" stroke="#ffffff" stroke-opacity="0.85" stroke-width="1.2"/><text x="260" y="449" font-family="'Segoe UI', system-ui, -apple-system, 'Helvetica Neue', sans-serif" font-size="21" fill="#ffffff" font-weight="600">Context channels</text><text x="238" y="495" font-family="'Segoe UI', system-ui, -apple-system, 'Helvetica Neue', sans-serif" font-size="18" fill="#173147">Epochs are convolutional input channels; keep the noisy</text><text x="238" y="519" font-family="'Segoe UI', system-ui, -apple-system, 'Helvetica Neue', sans-serif" font-size="18" fill="#173147">centre.</text>
<rect x="220" y="694" width="560" height="122" rx="12" fill="#ffffff" stroke="#173147" stroke-opacity="0.16" stroke-width="1.25" filter="url(#fp-shadow)"/><path d="M220 706 A12 12 0 0 1 232 694 L768 694 A12 12 0 0 1 780 706 L780 741 L220 741 Z" fill="url(#fp-header)"/><circle cx="241" cy="718" r="4.5" fill="#aedbec" stroke="#ffffff" stroke-opacity="0.85" stroke-width="1.2"/><text x="260" y="723" font-family="'Segoe UI', system-ui, -apple-system, 'Helvetica Neue', sans-serif" font-size="21" fill="#ffffff" font-weight="600">Shared CNN / Transformer</text><text x="238" y="769" font-family="'Segoe UI', system-ui, -apple-system, 'Helvetica Neue', sans-serif" font-size="18" fill="#173147">CNN stem; encoder levels with local and global attention.</text><text x="238" y="793" font-family="'Segoe UI', system-ui, -apple-system, 'Helvetica Neue', sans-serif" font-size="18" fill="#173147">Store skip features before downsampling.</text>
<rect x="220" y="968" width="560" height="122" rx="12" fill="#ffffff" stroke="#173147" stroke-opacity="0.16" stroke-width="1.25" filter="url(#fp-shadow)"/><path d="M220 980 A12 12 0 0 1 232 968 L768 968 A12 12 0 0 1 780 980 L780 1015 L220 1015 Z" fill="url(#fp-header)"/><circle cx="241" cy="992" r="4.5" fill="#aedbec" stroke="#ffffff" stroke-opacity="0.85" stroke-width="1.2"/><text x="260" y="997" font-family="'Segoe UI', system-ui, -apple-system, 'Helvetica Neue', sans-serif" font-size="21" fill="#ffffff" font-weight="600">Shared bottleneck</text><text x="238" y="1043" font-family="'Segoe UI', system-ui, -apple-system, 'Helvetica Neue', sans-serif" font-size="18" fill="#173147">Process deepest features before splitting into decoder</text><text x="238" y="1067" font-family="'Segoe UI', system-ui, -apple-system, 'Helvetica Neue', sans-serif" font-size="18" fill="#173147">branches.</text>
<rect x="170" y="1242" width="300" height="194" rx="12" fill="#ffffff" stroke="#173147" stroke-opacity="0.16" stroke-width="1.25" filter="url(#fp-shadow)"/><path d="M170 1254 A12 12 0 0 1 182 1242 L458 1242 A12 12 0 0 1 470 1254 L470 1289 L170 1289 Z" fill="url(#fp-header)"/><circle cx="191" cy="1266" r="4.5" fill="#aedbec" stroke="#ffffff" stroke-opacity="0.85" stroke-width="1.2"/><text x="210" y="1271" font-family="'Segoe UI', system-ui, -apple-system, 'Helvetica Neue', sans-serif" font-size="21" fill="#ffffff" font-weight="600">Clean decoder branch</text><text x="188" y="1317" font-family="'Segoe UI', system-ui, -apple-system, 'Helvetica Neue', sans-serif" font-size="18" fill="#173147">Upsample, concatenate</text><text x="188" y="1341" font-family="'Segoe UI', system-ui, -apple-system, 'Helvetica Neue', sans-serif" font-size="18" fill="#173147">encoder skips, CNN</text><text x="188" y="1365" font-family="'Segoe UI', system-ui, -apple-system, 'Helvetica Neue', sans-serif" font-size="18" fill="#173147">refinement.</text><text x="188" y="1389" font-family="'Segoe UI', system-ui, -apple-system, 'Helvetica Neue', sans-serif" font-size="18" fill="#173147">Linear interpolation and</text><text x="188" y="1413" font-family="'Segoe UI', system-ui, -apple-system, 'Helvetica Neue', sans-serif" font-size="18" fill="#173147">waveform head.</text>
<rect x="530" y="1242" width="300" height="194" rx="12" fill="#ffffff" stroke="#173147" stroke-opacity="0.16" stroke-width="1.25" filter="url(#fp-shadow)"/><path d="M530 1254 A12 12 0 0 1 542 1242 L818 1242 A12 12 0 0 1 830 1254 L830 1289 L530 1289 Z" fill="url(#fp-header)"/><circle cx="551" cy="1266" r="4.5" fill="#aedbec" stroke="#ffffff" stroke-opacity="0.85" stroke-width="1.2"/><text x="570" y="1271" font-family="'Segoe UI', system-ui, -apple-system, 'Helvetica Neue', sans-serif" font-size="21" fill="#ffffff" font-weight="600">Artifact decoder branch</text><text x="548" y="1317" font-family="'Segoe UI', system-ui, -apple-system, 'Helvetica Neue', sans-serif" font-size="18" fill="#173147">Independent decoder weights</text><text x="548" y="1341" font-family="'Segoe UI', system-ui, -apple-system, 'Helvetica Neue', sans-serif" font-size="18" fill="#173147">with the same encoder</text><text x="548" y="1365" font-family="'Segoe UI', system-ui, -apple-system, 'Helvetica Neue', sans-serif" font-size="18" fill="#173147">skips.</text><text x="548" y="1389" font-family="'Segoe UI', system-ui, -apple-system, 'Helvetica Neue', sans-serif" font-size="18" fill="#173147">Linear interpolation and</text><text x="548" y="1413" font-family="'Segoe UI', system-ui, -apple-system, 'Helvetica Neue', sans-serif" font-size="18" fill="#173147">artifact head.</text>
<rect x="220" y="1588" width="560" height="122" rx="12" fill="#ffffff" stroke="#173147" stroke-opacity="0.16" stroke-width="1.25" filter="url(#fp-shadow)"/><path d="M220 1600 A12 12 0 0 1 232 1588 L768 1588 A12 12 0 0 1 780 1600 L780 1635 L220 1635 Z" fill="url(#fp-header)"/><circle cx="241" cy="1612" r="4.5" fill="#aedbec" stroke="#ffffff" stroke-opacity="0.85" stroke-width="1.2"/><text x="260" y="1617" font-family="'Segoe UI', system-ui, -apple-system, 'Helvetica Neue', sans-serif" font-size="21" fill="#ffffff" font-weight="600">Gated clean fusion</text><text x="238" y="1663" font-family="'Segoe UI', system-ui, -apple-system, 'Helvetica Neue', sans-serif" font-size="18" fill="#173147">A sigmoid gate combines clean and input-minus-artifact.</text><text x="238" y="1687" font-family="'Segoe UI', system-ui, -apple-system, 'Helvetica Neue', sans-serif" font-size="18" fill="#173147">The complementary weight is 1 - gate.</text>
<rect x="220" y="1862" width="560" height="122" rx="12" fill="#ffffff" stroke="#173147" stroke-opacity="0.16" stroke-width="1.25" filter="url(#fp-shadow)"/><path d="M220 1874 A12 12 0 0 1 232 1862 L768 1862 A12 12 0 0 1 780 1874 L780 1909 L220 1909 Z" fill="url(#fp-header)"/><circle cx="241" cy="1886" r="4.5" fill="#aedbec" stroke="#ffffff" stroke-opacity="0.85" stroke-width="1.2"/><text x="260" y="1891" font-family="'Segoe UI', system-ui, -apple-system, 'Helvetica Neue', sans-serif" font-size="21" fill="#ffffff" font-weight="600">Returned waveform</text><text x="238" y="1937" font-family="'Segoe UI', system-ui, -apple-system, 'Helvetica Neue', sans-serif" font-size="18" fill="#173147">forward returns the artifact decoder prediction.</text><text x="238" y="1961" font-family="'Segoe UI', system-ui, -apple-system, 'Helvetica Neue', sans-serif" font-size="18" fill="#173147">Fused clean is retained for the training objective.</text>
<rect x="220" y="2136" width="560" height="122" rx="12" fill="#ffffff" stroke="#173147" stroke-opacity="0.16" stroke-width="1.25" filter="url(#fp-shadow)"/><path d="M220 2148 A12 12 0 0 1 232 2136 L768 2136 A12 12 0 0 1 780 2148 L780 2183 L220 2183 Z" fill="url(#fp-header)"/><circle cx="241" cy="2160" r="4.5" fill="#aedbec" stroke="#ffffff" stroke-opacity="0.85" stroke-width="1.2"/><text x="260" y="2165" font-family="'Segoe UI', system-ui, -apple-system, 'Helvetica Neue', sans-serif" font-size="21" fill="#ffffff" font-weight="600">Deployment artifact output</text><text x="238" y="2211" font-family="'Segoe UI', system-ui, -apple-system, 'Helvetica Neue', sans-serif" font-size="18" fill="#173147">Convert the configured core output to a centre artifact.</text><text x="238" y="2235" font-family="'Segoe UI', system-ui, -apple-system, 'Helvetica Neue', sans-serif" font-size="18" fill="#173147">Optionally remove prediction DC; restore the input scale.</text>
<rect x="486.0" y="273.0" width="28" height="26" rx="7" fill="#eef6fb" stroke="#2f6d94" stroke-width="1"/><text x="500.0" y="292.0" font-family="'Segoe UI', system-ui, -apple-system, 'Helvetica Neue', sans-serif" font-size="17" fill="#173147" font-weight="600" text-anchor="middle">1</text>
<rect x="473.0" y="547.0" width="28" height="26" rx="7" fill="#eef6fb" stroke="#2f6d94" stroke-width="1"/><text x="487.0" y="566.0" font-family="'Segoe UI', system-ui, -apple-system, 'Helvetica Neue', sans-serif" font-size="17" fill="#173147" font-weight="600" text-anchor="middle">2</text>
<rect x="460.0" y="821.0" width="28" height="26" rx="7" fill="#eef6fb" stroke="#2f6d94" stroke-width="1"/><text x="474.0" y="840.0" font-family="'Segoe UI', system-ui, -apple-system, 'Helvetica Neue', sans-serif" font-size="17" fill="#173147" font-weight="600" text-anchor="middle">3</text>
<rect x="383.0" y="1109" width="28" height="26" rx="7" fill="#eef6fb" stroke="#2f6d94" stroke-width="1"/><text x="397.0" y="1128" font-family="'Segoe UI', system-ui, -apple-system, 'Helvetica Neue', sans-serif" font-size="17" fill="#173147" font-weight="600" text-anchor="middle">4</text>
<rect x="576.0" y="1133" width="28" height="26" rx="7" fill="#eef6fb" stroke="#2f6d94" stroke-width="1"/><text x="590.0" y="1152" font-family="'Segoe UI', system-ui, -apple-system, 'Helvetica Neue', sans-serif" font-size="17" fill="#173147" font-weight="600" text-anchor="middle">5</text>
<rect x="16" y="1017.0" width="28" height="26" rx="7" fill="#eef6fb" stroke="#2f6d94" stroke-width="1"/><text x="30" y="1036.0" font-family="'Segoe UI', system-ui, -apple-system, 'Helvetica Neue', sans-serif" font-size="17" fill="#173147" font-weight="600" text-anchor="middle">6</text>
<rect x="956" y="1028.0" width="28" height="26" rx="7" fill="#eef6fb" stroke="#2f6d94" stroke-width="1"/><text x="970" y="1047.0" font-family="'Segoe UI', system-ui, -apple-system, 'Helvetica Neue', sans-serif" font-size="17" fill="#173147" font-weight="600" text-anchor="middle">7</text>
<rect x="383.0" y="1455" width="28" height="26" rx="7" fill="#eef6fb" stroke="#2f6d94" stroke-width="1"/><text x="397.0" y="1474" font-family="'Segoe UI', system-ui, -apple-system, 'Helvetica Neue', sans-serif" font-size="17" fill="#173147" font-weight="600" text-anchor="middle">8</text>
<rect x="569.5" y="1455" width="28" height="26" rx="7" fill="#eef6fb" stroke="#2f6d94" stroke-width="1"/><text x="583.5" y="1474" font-family="'Segoe UI', system-ui, -apple-system, 'Helvetica Neue', sans-serif" font-size="17" fill="#173147" font-weight="600" text-anchor="middle">9</text>
<rect x="39.0" y="811.5" width="28" height="26" rx="7" fill="#eef6fb" stroke="#2f6d94" stroke-width="1"/><text x="53.0" y="830.5" font-family="'Segoe UI', system-ui, -apple-system, 'Helvetica Neue', sans-serif" font-size="17" fill="#173147" font-weight="600" text-anchor="middle">10</text>
<rect x="933" y="1648.0" width="28" height="26" rx="7" fill="#eef6fb" stroke="#2f6d94" stroke-width="1"/><text x="947" y="1667.0" font-family="'Segoe UI', system-ui, -apple-system, 'Helvetica Neue', sans-serif" font-size="17" fill="#173147" font-weight="600" text-anchor="middle">11</text>
<rect x="486.0" y="1989.0" width="28" height="26" rx="7" fill="#eef6fb" stroke="#2f6d94" stroke-width="1"/><text x="500.0" y="2008.0" font-family="'Segoe UI', system-ui, -apple-system, 'Helvetica Neue', sans-serif" font-size="17" fill="#173147" font-weight="600" text-anchor="middle">12</text>
<text x="60" y="2414" font-family="'Segoe UI', system-ui, -apple-system, 'Helvetica Neue', sans-serif" font-size="23" fill="#173147" font-weight="600">Relationships</text>
<rect x="60" y="2428" width="28" height="26" rx="7" fill="#eef6fb" stroke="#2f6d94" stroke-width="1"/><text x="74" y="2447" font-family="'Segoe UI', system-ui, -apple-system, 'Helvetica Neue', sans-serif" font-size="17" fill="#173147" font-weight="600" text-anchor="middle">1</text>
<text x="100" y="2446" font-family="'Segoe UI', system-ui, -apple-system, 'Helvetica Neue', sans-serif" font-size="18" fill="#173147">Deployment input normalisation → Context channels · flow</text>
<rect x="60" y="2465" width="28" height="26" rx="7" fill="#eef6fb" stroke="#2f6d94" stroke-width="1"/><text x="74" y="2484" font-family="'Segoe UI', system-ui, -apple-system, 'Helvetica Neue', sans-serif" font-size="17" fill="#173147" font-weight="600" text-anchor="middle">2</text>
<text x="100" y="2483" font-family="'Segoe UI', system-ui, -apple-system, 'Helvetica Neue', sans-serif" font-size="18" fill="#173147">Context channels → Shared CNN / Transformer · flow</text>
<rect x="60" y="2502" width="28" height="26" rx="7" fill="#eef6fb" stroke="#2f6d94" stroke-width="1"/><text x="74" y="2521" font-family="'Segoe UI', system-ui, -apple-system, 'Helvetica Neue', sans-serif" font-size="17" fill="#173147" font-weight="600" text-anchor="middle">3</text>
<text x="100" y="2520" font-family="'Segoe UI', system-ui, -apple-system, 'Helvetica Neue', sans-serif" font-size="18" fill="#173147">Shared CNN / Transformer → Shared bottleneck · flow</text>
<rect x="60" y="2539" width="28" height="26" rx="7" fill="#eef6fb" stroke="#2f6d94" stroke-width="1"/><text x="74" y="2558" font-family="'Segoe UI', system-ui, -apple-system, 'Helvetica Neue', sans-serif" font-size="17" fill="#173147" font-weight="600" text-anchor="middle">4</text>
<text x="100" y="2557" font-family="'Segoe UI', system-ui, -apple-system, 'Helvetica Neue', sans-serif" font-size="18" fill="#173147">Shared bottleneck → Clean decoder branch · flow</text>
<rect x="60" y="2576" width="28" height="26" rx="7" fill="#eef6fb" stroke="#2f6d94" stroke-width="1"/><text x="74" y="2595" font-family="'Segoe UI', system-ui, -apple-system, 'Helvetica Neue', sans-serif" font-size="17" fill="#173147" font-weight="600" text-anchor="middle">5</text>
<text x="100" y="2594" font-family="'Segoe UI', system-ui, -apple-system, 'Helvetica Neue', sans-serif" font-size="18" fill="#173147">Shared bottleneck → Artifact decoder branch · flow</text>
<rect x="60" y="2613" width="28" height="26" rx="7" fill="#eef6fb" stroke="#2f6d94" stroke-width="1"/><text x="74" y="2632" font-family="'Segoe UI', system-ui, -apple-system, 'Helvetica Neue', sans-serif" font-size="17" fill="#173147" font-weight="600" text-anchor="middle">6</text>
<text x="100" y="2631" font-family="'Segoe UI', system-ui, -apple-system, 'Helvetica Neue', sans-serif" font-size="18" fill="#173147">Shared CNN / Transformer → Clean decoder branch · skip: Matching feature levels</text>
<rect x="60" y="2650" width="28" height="26" rx="7" fill="#eef6fb" stroke="#2f6d94" stroke-width="1"/><text x="74" y="2669" font-family="'Segoe UI', system-ui, -apple-system, 'Helvetica Neue', sans-serif" font-size="17" fill="#173147" font-weight="600" text-anchor="middle">7</text>
<text x="100" y="2668" font-family="'Segoe UI', system-ui, -apple-system, 'Helvetica Neue', sans-serif" font-size="18" fill="#173147">Shared CNN / Transformer → Artifact decoder branch · skip: Matching feature levels</text>
<rect x="60" y="2687" width="28" height="26" rx="7" fill="#eef6fb" stroke="#2f6d94" stroke-width="1"/><text x="74" y="2706" font-family="'Segoe UI', system-ui, -apple-system, 'Helvetica Neue', sans-serif" font-size="17" fill="#173147" font-weight="600" text-anchor="middle">8</text>
<text x="100" y="2705" font-family="'Segoe UI', system-ui, -apple-system, 'Helvetica Neue', sans-serif" font-size="18" fill="#173147">Clean decoder branch → Gated clean fusion · merge</text>
<rect x="60" y="2724" width="28" height="26" rx="7" fill="#eef6fb" stroke="#2f6d94" stroke-width="1"/><text x="74" y="2743" font-family="'Segoe UI', system-ui, -apple-system, 'Helvetica Neue', sans-serif" font-size="17" fill="#173147" font-weight="600" text-anchor="middle">9</text>
<text x="100" y="2742" font-family="'Segoe UI', system-ui, -apple-system, 'Helvetica Neue', sans-serif" font-size="18" fill="#173147">Artifact decoder branch → Gated clean fusion · merge</text>
<rect x="60" y="2761" width="28" height="26" rx="7" fill="#eef6fb" stroke="#2f6d94" stroke-width="1"/><text x="74" y="2780" font-family="'Segoe UI', system-ui, -apple-system, 'Helvetica Neue', sans-serif" font-size="17" fill="#173147" font-weight="600" text-anchor="middle">10</text>
<text x="100" y="2779" font-family="'Segoe UI', system-ui, -apple-system, 'Helvetica Neue', sans-serif" font-size="18" fill="#173147">Context channels → Gated clean fusion · skip: Noisy centre</text>
<rect x="60" y="2798" width="28" height="26" rx="7" fill="#eef6fb" stroke="#2f6d94" stroke-width="1"/><text x="74" y="2817" font-family="'Segoe UI', system-ui, -apple-system, 'Helvetica Neue', sans-serif" font-size="17" fill="#173147" font-weight="600" text-anchor="middle">11</text>
<text x="100" y="2816" font-family="'Segoe UI', system-ui, -apple-system, 'Helvetica Neue', sans-serif" font-size="18" fill="#173147">Artifact decoder branch → Returned waveform · flow: Inference output</text>
<rect x="60" y="2835" width="28" height="26" rx="7" fill="#eef6fb" stroke="#2f6d94" stroke-width="1"/><text x="74" y="2854" font-family="'Segoe UI', system-ui, -apple-system, 'Helvetica Neue', sans-serif" font-size="17" fill="#173147" font-weight="600" text-anchor="middle">12</text>
<text x="100" y="2853" font-family="'Segoe UI', system-ui, -apple-system, 'Helvetica Neue', sans-serif" font-size="18" fill="#173147">Returned waveform → Deployment artifact output · flow</text>
<text x="60" y="2904" font-family="'Segoe UI', system-ui, -apple-system, 'Helvetica Neue', sans-serif" font-size="23" fill="#173147" font-weight="600">Reading notes</text>
<text x="60" y="2936" font-family="'Segoe UI', system-ui, -apple-system, 'Helvetica Neue', sans-serif" font-size="18" fill="#173147">Discriminators and adversarial objectives are training-only; they are not in the inference signal</text>
<text x="60" y="2961" font-family="'Segoe UI', system-ui, -apple-system, 'Helvetica Neue', sans-serif" font-size="18" fill="#173147">path.</text>
<text x="60" y="2995" font-family="'Segoe UI', system-ui, -apple-system, 'Helvetica Neue', sans-serif" font-size="18" fill="#173147">Deployment changes normalisation and objective; architecture parameters remain</text>
<text x="60" y="3020" font-family="'Segoe UI', system-ui, -apple-system, 'Helvetica Neue', sans-serif" font-size="18" fill="#173147">configuration-dependent.</text>
<text x="60" y="3054" font-family="'Segoe UI', system-ui, -apple-system, 'Helvetica Neue', sans-serif" font-size="18" fill="#173147">Dimensions and repeated-block counts are configurable; consult the linked implementation and</text>
<text x="60" y="3079" font-family="'Segoe UI', system-ui, -apple-system, 'Helvetica Neue', sans-serif" font-size="18" fill="#173147">run configuration.</text>
<text x="60" y="3131" font-family="'Segoe UI', system-ui, -apple-system, 'Helvetica Neue', sans-serif" font-size="23" fill="#173147" font-weight="600">Implementation sources</text>
<text x="60" y="3161" font-family="'Segoe UI', system-ui, -apple-system, 'Helvetica Neue', sans-serif" font-size="17" fill="#2f6d94">Variant implementation and forward contract:</text>
<text x="60" y="3185" font-family="'Segoe UI', system-ui, -apple-system, 'Helvetica Neue', sans-serif" font-size="17" fill="#2f6d94">src/facet/models/masterthesis/dhct_gan/v2/deployment/training.py</text>
<text x="60" y="3209" font-family="'Segoe UI', system-ui, -apple-system, 'Helvetica Neue', sans-serif" font-size="17" fill="#2f6d94">Self-normalising deployment wrapper: src/facet/training/deployment_model.py</text>
<text x="60" y="3233" font-family="'Segoe UI', system-ui, -apple-system, 'Helvetica Neue', sans-serif" font-size="17" fill="#2f6d94">Shared core architecture: src/facet/models/masterthesis/dhct_gan/v2/training.py</text>
<text x="980" y="3283" font-family="'Segoe UI', system-ui, -apple-system, 'Helvetica Neue', sans-serif" font-size="11" fill="#5b7488" text-anchor="end" fill-opacity="0.8">Made with FACETpy</text>
</svg>
