<svg xmlns="http://www.w3.org/2000/svg" viewBox="0 0 1000 1817" width="190mm" height="345.23mm" font-family="'Segoe UI', system-ui, -apple-system, 'Helvetica Neue', sans-serif">
<title>Cascaded DAE — detailed architecture</title>
<defs>
  <linearGradient id="fp-header" x1="0" y1="0" x2="0" y2="1">
    <stop offset="0" stop-color="#0f2537"/><stop offset="1" stop-color="#2f6d94"/>
  </linearGradient>
  <linearGradient id="fp-bg" x1="0" y1="0" x2="1" y2="1">
    <stop offset="0" stop-color="#ffffff"/><stop offset="1" stop-color="#eef6fb"/>
  </linearGradient>
  <pattern id="fp-grid" width="40" height="40" patternUnits="userSpaceOnUse">
    <path d="M40 0 L0 0 0 40" fill="none" stroke="#173147" stroke-opacity="0.045" stroke-width="1"/>
  </pattern>
  <filter id="fp-shadow" x="-20%" y="-20%" width="140%" height="140%">
    <feDropShadow dx="0" dy="4" stdDeviation="7" flood-color="#0f2537" flood-opacity="0.13"/>
  </filter>
  <marker id="fp-arrow" markerWidth="12" markerHeight="12" refX="9" refY="5" orient="auto">
    <path d="M1 1 L9 5 L1 9" fill="none" stroke="#173147" stroke-opacity="0.7" stroke-width="1.5"/>
  </marker>
  <marker id="fp-arrow-open" markerWidth="13" markerHeight="12" refX="10" refY="5" orient="auto">
    <path d="M1 1 L10 5 L1 9" fill="none" stroke="#173147" stroke-opacity="0.6" stroke-width="1.3"/>
  </marker>
  <marker id="fp-diamond" markerWidth="18" markerHeight="12" refX="1" refY="5" orient="auto">
    <path d="M1 5 L8 1.5 L15 5 L8 8.5 Z" fill="#173147" fill-opacity="0.75" stroke="#173147" stroke-width="1"/>
  </marker>
  <marker id="fp-diamond-open" markerWidth="18" markerHeight="12" refX="1" refY="5" orient="auto">
    <path d="M1 5 L8 1.5 L15 5 L8 8.5 Z" fill="#ffffff" stroke="#173147" stroke-width="1.3"/>
  </marker>
  <marker id="fp-triangle" markerWidth="16" markerHeight="14" refX="13" refY="6" orient="auto">
    <path d="M1 1 L13 6 L1 11 Z" fill="#ffffff" stroke="#173147" stroke-width="1.4"/>
  </marker>
</defs>
<rect x="0" y="0" width="1000" height="1817" fill="url(#fp-grid)"/>
<polyline points="487.0,224 487.0,252 500.0,252 500.0,342" fill="none" stroke="#173147" stroke-opacity="0.55" stroke-width="1.5" marker-end="url(#fp-arrow)"/>
<polyline points="487.0,496 487.0,524 487.0,524 487.0,614" fill="none" stroke="#173147" stroke-opacity="0.55" stroke-width="1.5" marker-end="url(#fp-arrow)"/>
<polyline points="500.0,720 500.0,748 500.0,748 500.0,838" fill="none" stroke="#173147" stroke-opacity="0.55" stroke-width="1.5" marker-end="url(#fp-arrow)"/>
<polyline points="500.0,944 500.0,972 487.0,972 487.0,1062" fill="none" stroke="#173147" stroke-opacity="0.55" stroke-width="1.5" marker-end="url(#fp-arrow)"/>
<polyline points="513.0,224 513.0,272 30,272 30,568 513.0,568 513.0,614" fill="none" stroke="#173147" stroke-opacity="0.55" stroke-width="1.5" marker-end="url(#fp-arrow)"/>
<polyline points="513.0,496 513.0,544 970,544 970,1016 513.0,1016 513.0,1062" fill="none" stroke="#173147" stroke-opacity="0.55" stroke-width="1.5" marker-end="url(#fp-arrow)"/>
<text x="40" y="38" font-family="'Segoe UI', system-ui, -apple-system, 'Helvetica Neue', sans-serif" font-size="27" fill="#173147" font-weight="600">Cascaded DAE · Thesis model</text>
<text x="40" y="70" font-family="'Segoe UI', system-ui, -apple-system, 'Helvetica Neue', sans-serif" font-size="17" fill="#5b7488">Detailed architecture · numbered relationships below</text>
<polyline points="790.0,65.0 792.7,65.0 795.3,65.0 798.0,65.0 800.7,65.0 803.3,65.0 806.0,65.0 808.7,65.0 811.3,65.0 814.0,65.0 816.7,65.0 819.3,65.0 822.0,65.0 824.7,65.0 827.3,65.0 830.0,65.0 832.7,62.0 835.3,59.8 838.0,59.0 840.7,59.8 843.3,62.0 846.0,65.0 848.7,68.0 851.3,70.2 854.0,71.0 856.7,70.2 859.3,68.0 862.0,65.0 864.7,62.0 867.3,59.8 870.0,59.0 872.7,59.8 875.3,62.0 878.0,65.0 880.7,54.8 883.3,46.2 886.0,40.7 888.7,39.0 891.3,41.5 894.0,47.8 896.7,56.8 899.3,65.0 902.0,65.0 904.7,65.0 907.3,65.0 910.0,65.0 912.7,65.0 915.3,65.0 918.0,65.0 920.7,65.0 923.3,65.0 926.0,65.0 928.7,65.0 931.3,65.0 934.0,65.0 936.7,65.0 939.3,65.0 942.0,65.0 944.7,65.0 947.3,65.0 950.0,65.0" fill="none" stroke="#7eb8d2" stroke-opacity="0.9" stroke-width="2" stroke-linejoin="round"/>
<rect x="220" y="98" width="560" height="122" rx="12" fill="#ffffff" stroke="#173147" stroke-opacity="0.16" stroke-width="1.25" filter="url(#fp-shadow)"/><path d="M220 110 A12 12 0 0 1 232 98 L768 98 A12 12 0 0 1 780 110 L780 145 L220 145 Z" fill="url(#fp-header)"/><circle cx="241" cy="122" r="4.5" fill="#aedbec" stroke="#ffffff" stroke-opacity="0.85" stroke-width="1.2"/><text x="260" y="127" font-family="'Segoe UI', system-ui, -apple-system, 'Helvetica Neue', sans-serif" font-size="21" fill="#ffffff" font-weight="600">Noisy epoch</text><text x="238" y="173" font-family="'Segoe UI', system-ui, -apple-system, 'Helvetica Neue', sans-serif" font-size="18" fill="#173147">One EEG channel; epoch and context sizes follow the</text><text x="238" y="197" font-family="'Segoe UI', system-ui, -apple-system, 'Helvetica Neue', sans-serif" font-size="18" fill="#173147">configuration.</text>
<rect x="220" y="346" width="560" height="146" rx="12" fill="#ffffff" stroke="#173147" stroke-opacity="0.16" stroke-width="1.25" filter="url(#fp-shadow)"/><path d="M220 358 A12 12 0 0 1 232 346 L768 346 A12 12 0 0 1 780 358 L780 393 L220 393 Z" fill="url(#fp-header)"/><circle cx="241" cy="370" r="4.5" fill="#aedbec" stroke="#ffffff" stroke-opacity="0.85" stroke-width="1.2"/><text x="260" y="375" font-family="'Segoe UI', system-ui, -apple-system, 'Helvetica Neue', sans-serif" font-size="21" fill="#ffffff" font-weight="600">First dense autoencoder</text><text x="238" y="421" font-family="'Segoe UI', system-ui, -apple-system, 'Helvetica Neue', sans-serif" font-size="18" fill="#173147">Flatten; dense encoder and decoder with LeakyReLU and</text><text x="238" y="445" font-family="'Segoe UI', system-ui, -apple-system, 'Helvetica Neue', sans-serif" font-size="18" fill="#173147">Dropout.</text><text x="238" y="469" font-family="'Segoe UI', system-ui, -apple-system, 'Helvetica Neue', sans-serif" font-size="18" fill="#173147">Estimate the first artifact component.</text>
<rect x="220" y="618" width="560" height="98" rx="12" fill="#ffffff" stroke="#173147" stroke-opacity="0.16" stroke-width="1.25" filter="url(#fp-shadow)"/><path d="M220 630 A12 12 0 0 1 232 618 L768 618 A12 12 0 0 1 780 630 L780 665 L220 665 Z" fill="url(#fp-header)"/><circle cx="241" cy="642" r="4.5" fill="#aedbec" stroke="#ffffff" stroke-opacity="0.85" stroke-width="1.2"/><text x="260" y="647" font-family="'Segoe UI', system-ui, -apple-system, 'Helvetica Neue', sans-serif" font-size="21" fill="#ffffff" font-weight="600">Subtract first estimate</text><text x="238" y="693" font-family="'Segoe UI', system-ui, -apple-system, 'Helvetica Neue', sans-serif" font-size="18" fill="#173147">Residual signal = noisy epoch - first artifact estimate.</text>
<rect x="220" y="842" width="560" height="98" rx="12" fill="#ffffff" stroke="#173147" stroke-opacity="0.16" stroke-width="1.25" filter="url(#fp-shadow)"/><path d="M220 854 A12 12 0 0 1 232 842 L768 842 A12 12 0 0 1 780 854 L780 889 L220 889 Z" fill="url(#fp-header)"/><circle cx="241" cy="866" r="4.5" fill="#aedbec" stroke="#ffffff" stroke-opacity="0.85" stroke-width="1.2"/><text x="260" y="871" font-family="'Segoe UI', system-ui, -apple-system, 'Helvetica Neue', sans-serif" font-size="21" fill="#ffffff" font-weight="600">Second dense autoencoder</text><text x="238" y="917" font-family="'Segoe UI', system-ui, -apple-system, 'Helvetica Neue', sans-serif" font-size="18" fill="#173147">Predict the remaining artifact from the residual signal.</text>
<rect x="220" y="1066" width="560" height="122" rx="12" fill="#ffffff" stroke="#173147" stroke-opacity="0.16" stroke-width="1.25" filter="url(#fp-shadow)"/><path d="M220 1078 A12 12 0 0 1 232 1066 L768 1066 A12 12 0 0 1 780 1078 L780 1113 L220 1113 Z" fill="url(#fp-header)"/><circle cx="241" cy="1090" r="4.5" fill="#aedbec" stroke="#ffffff" stroke-opacity="0.85" stroke-width="1.2"/><text x="260" y="1095" font-family="'Segoe UI', system-ui, -apple-system, 'Helvetica Neue', sans-serif" font-size="21" fill="#ffffff" font-weight="600">Sum both predictions</text><text x="238" y="1141" font-family="'Segoe UI', system-ui, -apple-system, 'Helvetica Neue', sans-serif" font-size="18" fill="#173147">Artifact = stage 1 + stage 2; output preserves the centre</text><text x="238" y="1165" font-family="'Segoe UI', system-ui, -apple-system, 'Helvetica Neue', sans-serif" font-size="18" fill="#173147">epoch length.</text>
<rect x="473.0" y="225.0" width="28" height="26" rx="7" fill="#eef6fb" stroke="#2f6d94" stroke-width="1"/><text x="487.0" y="244.0" font-family="'Segoe UI', system-ui, -apple-system, 'Helvetica Neue', sans-serif" font-size="17" fill="#173147" font-weight="600" text-anchor="middle">1</text>
<rect x="473.0" y="497.0" width="28" height="26" rx="7" fill="#eef6fb" stroke="#2f6d94" stroke-width="1"/><text x="487.0" y="516.0" font-family="'Segoe UI', system-ui, -apple-system, 'Helvetica Neue', sans-serif" font-size="17" fill="#173147" font-weight="600" text-anchor="middle">2</text>
<rect x="486.0" y="721.0" width="28" height="26" rx="7" fill="#eef6fb" stroke="#2f6d94" stroke-width="1"/><text x="500.0" y="740.0" font-family="'Segoe UI', system-ui, -apple-system, 'Helvetica Neue', sans-serif" font-size="17" fill="#173147" font-weight="600" text-anchor="middle">3</text>
<rect x="486.0" y="945.0" width="28" height="26" rx="7" fill="#eef6fb" stroke="#2f6d94" stroke-width="1"/><text x="500.0" y="964.0" font-family="'Segoe UI', system-ui, -apple-system, 'Helvetica Neue', sans-serif" font-size="17" fill="#173147" font-weight="600" text-anchor="middle">4</text>
<rect x="16" y="407.0" width="28" height="26" rx="7" fill="#eef6fb" stroke="#2f6d94" stroke-width="1"/><text x="30" y="426.0" font-family="'Segoe UI', system-ui, -apple-system, 'Helvetica Neue', sans-serif" font-size="17" fill="#173147" font-weight="600" text-anchor="middle">5</text>
<rect x="956" y="767.0" width="28" height="26" rx="7" fill="#eef6fb" stroke="#2f6d94" stroke-width="1"/><text x="970" y="786.0" font-family="'Segoe UI', system-ui, -apple-system, 'Helvetica Neue', sans-serif" font-size="17" fill="#173147" font-weight="600" text-anchor="middle">6</text>
<text x="60" y="1318" font-family="'Segoe UI', system-ui, -apple-system, 'Helvetica Neue', sans-serif" font-size="23" fill="#173147" font-weight="600">Relationships</text>
<rect x="60" y="1332" width="28" height="26" rx="7" fill="#eef6fb" stroke="#2f6d94" stroke-width="1"/><text x="74" y="1351" font-family="'Segoe UI', system-ui, -apple-system, 'Helvetica Neue', sans-serif" font-size="17" fill="#173147" font-weight="600" text-anchor="middle">1</text>
<text x="100" y="1350" font-family="'Segoe UI', system-ui, -apple-system, 'Helvetica Neue', sans-serif" font-size="18" fill="#173147">Noisy epoch → First dense autoencoder · flow</text>
<rect x="60" y="1369" width="28" height="26" rx="7" fill="#eef6fb" stroke="#2f6d94" stroke-width="1"/><text x="74" y="1388" font-family="'Segoe UI', system-ui, -apple-system, 'Helvetica Neue', sans-serif" font-size="17" fill="#173147" font-weight="600" text-anchor="middle">2</text>
<text x="100" y="1387" font-family="'Segoe UI', system-ui, -apple-system, 'Helvetica Neue', sans-serif" font-size="18" fill="#173147">First dense autoencoder → Subtract first estimate · flow</text>
<rect x="60" y="1406" width="28" height="26" rx="7" fill="#eef6fb" stroke="#2f6d94" stroke-width="1"/><text x="74" y="1425" font-family="'Segoe UI', system-ui, -apple-system, 'Helvetica Neue', sans-serif" font-size="17" fill="#173147" font-weight="600" text-anchor="middle">3</text>
<text x="100" y="1424" font-family="'Segoe UI', system-ui, -apple-system, 'Helvetica Neue', sans-serif" font-size="18" fill="#173147">Subtract first estimate → Second dense autoencoder · flow</text>
<rect x="60" y="1443" width="28" height="26" rx="7" fill="#eef6fb" stroke="#2f6d94" stroke-width="1"/><text x="74" y="1462" font-family="'Segoe UI', system-ui, -apple-system, 'Helvetica Neue', sans-serif" font-size="17" fill="#173147" font-weight="600" text-anchor="middle">4</text>
<text x="100" y="1461" font-family="'Segoe UI', system-ui, -apple-system, 'Helvetica Neue', sans-serif" font-size="18" fill="#173147">Second dense autoencoder → Sum both predictions · flow</text>
<rect x="60" y="1480" width="28" height="26" rx="7" fill="#eef6fb" stroke="#2f6d94" stroke-width="1"/><text x="74" y="1499" font-family="'Segoe UI', system-ui, -apple-system, 'Helvetica Neue', sans-serif" font-size="17" fill="#173147" font-weight="600" text-anchor="middle">5</text>
<text x="100" y="1498" font-family="'Segoe UI', system-ui, -apple-system, 'Helvetica Neue', sans-serif" font-size="18" fill="#173147">Noisy epoch → Subtract first estimate · skip: Original input</text>
<rect x="60" y="1517" width="28" height="26" rx="7" fill="#eef6fb" stroke="#2f6d94" stroke-width="1"/><text x="74" y="1536" font-family="'Segoe UI', system-ui, -apple-system, 'Helvetica Neue', sans-serif" font-size="17" fill="#173147" font-weight="600" text-anchor="middle">6</text>
<text x="100" y="1535" font-family="'Segoe UI', system-ui, -apple-system, 'Helvetica Neue', sans-serif" font-size="18" fill="#173147">First dense autoencoder → Sum both predictions · skip: First artifact estimate</text>
<text x="60" y="1586" font-family="'Segoe UI', system-ui, -apple-system, 'Helvetica Neue', sans-serif" font-size="23" fill="#173147" font-weight="600">Reading notes</text>
<text x="60" y="1618" font-family="'Segoe UI', system-ui, -apple-system, 'Helvetica Neue', sans-serif" font-size="18" fill="#173147">Dimensions and repeated-block counts are configurable; consult the linked implementation and</text>
<text x="60" y="1643" font-family="'Segoe UI', system-ui, -apple-system, 'Helvetica Neue', sans-serif" font-size="18" fill="#173147">run configuration.</text>
<text x="60" y="1695" font-family="'Segoe UI', system-ui, -apple-system, 'Helvetica Neue', sans-serif" font-size="23" fill="#173147" font-weight="600">Implementation sources</text>
<text x="60" y="1725" font-family="'Segoe UI', system-ui, -apple-system, 'Helvetica Neue', sans-serif" font-size="17" fill="#2f6d94">Variant implementation and forward contract: src/facet/models/masterthesis/cascaded_dae/training.py</text>
<text x="60" y="1749" font-family="'Segoe UI', system-ui, -apple-system, 'Helvetica Neue', sans-serif" font-size="17" fill="#2f6d94">Pipeline input/output adapter: src/facet/models/masterthesis/cascaded_dae/processor.py</text>
<text x="980" y="1799" font-family="'Segoe UI', system-ui, -apple-system, 'Helvetica Neue', sans-serif" font-size="11" fill="#5b7488" text-anchor="end" fill-opacity="0.8">Made with FACETpy</text>
</svg>
