<svg xmlns="http://www.w3.org/2000/svg" viewBox="0 0 1000 2408" width="190mm" height="457.52mm" font-family="'Segoe UI', system-ui, -apple-system, 'Helvetica Neue', sans-serif">
<title>ViT Spectrogram — detailed architecture</title>
<defs>
  <linearGradient id="fp-header" x1="0" y1="0" x2="0" y2="1">
    <stop offset="0" stop-color="#0f2537"/><stop offset="1" stop-color="#2f6d94"/>
  </linearGradient>
  <linearGradient id="fp-bg" x1="0" y1="0" x2="1" y2="1">
    <stop offset="0" stop-color="#ffffff"/><stop offset="1" stop-color="#eef6fb"/>
  </linearGradient>
  <pattern id="fp-grid" width="40" height="40" patternUnits="userSpaceOnUse">
    <path d="M40 0 L0 0 0 40" fill="none" stroke="#173147" stroke-opacity="0.045" stroke-width="1"/>
  </pattern>
  <filter id="fp-shadow" x="-20%" y="-20%" width="140%" height="140%">
    <feDropShadow dx="0" dy="4" stdDeviation="7" flood-color="#0f2537" flood-opacity="0.13"/>
  </filter>
  <marker id="fp-arrow" markerWidth="12" markerHeight="12" refX="9" refY="5" orient="auto">
    <path d="M1 1 L9 5 L1 9" fill="none" stroke="#173147" stroke-opacity="0.7" stroke-width="1.5"/>
  </marker>
  <marker id="fp-arrow-open" markerWidth="13" markerHeight="12" refX="10" refY="5" orient="auto">
    <path d="M1 1 L10 5 L1 9" fill="none" stroke="#173147" stroke-opacity="0.6" stroke-width="1.3"/>
  </marker>
  <marker id="fp-diamond" markerWidth="18" markerHeight="12" refX="1" refY="5" orient="auto">
    <path d="M1 5 L8 1.5 L15 5 L8 8.5 Z" fill="#173147" fill-opacity="0.75" stroke="#173147" stroke-width="1"/>
  </marker>
  <marker id="fp-diamond-open" markerWidth="18" markerHeight="12" refX="1" refY="5" orient="auto">
    <path d="M1 5 L8 1.5 L15 5 L8 8.5 Z" fill="#ffffff" stroke="#173147" stroke-width="1.3"/>
  </marker>
  <marker id="fp-triangle" markerWidth="16" markerHeight="14" refX="13" refY="6" orient="auto">
    <path d="M1 1 L13 6 L1 11 Z" fill="#ffffff" stroke="#173147" stroke-width="1.4"/>
  </marker>
</defs>
<rect x="0" y="0" width="1000" height="2408" fill="url(#fp-grid)"/>
<polyline points="500.0,200 500.0,228 500.0,228 500.0,318" fill="none" stroke="#173147" stroke-opacity="0.55" stroke-width="1.5" marker-end="url(#fp-arrow)"/>
<polyline points="487.0,448 487.0,476 500.0,476 500.0,566" fill="none" stroke="#173147" stroke-opacity="0.55" stroke-width="1.5" marker-end="url(#fp-arrow)"/>
<polyline points="500.0,696 500.0,724 500.0,724 500.0,814" fill="none" stroke="#173147" stroke-opacity="0.55" stroke-width="1.5" marker-end="url(#fp-arrow)"/>
<polyline points="500.0,944 500.0,972 500.0,972 500.0,1062" fill="none" stroke="#173147" stroke-opacity="0.55" stroke-width="1.5" marker-end="url(#fp-arrow)"/>
<polyline points="500.0,1192 500.0,1220 487.0,1220 487.0,1310" fill="none" stroke="#173147" stroke-opacity="0.55" stroke-width="1.5" marker-end="url(#fp-arrow)"/>
<polyline points="500.0,1440 500.0,1468 500.0,1468 500.0,1558" fill="none" stroke="#173147" stroke-opacity="0.55" stroke-width="1.5" marker-end="url(#fp-arrow)"/>
<polyline points="513.0,448 513.0,496 30,496 30,1264 513.0,1264 513.0,1310" fill="none" stroke="#173147" stroke-opacity="0.55" stroke-width="1.5" marker-end="url(#fp-arrow)"/>
<text x="40" y="38" font-family="'Segoe UI', system-ui, -apple-system, 'Helvetica Neue', sans-serif" font-size="27" fill="#173147" font-weight="600">ViT Spectrogram · Thesis model</text>
<text x="40" y="70" font-family="'Segoe UI', system-ui, -apple-system, 'Helvetica Neue', sans-serif" font-size="17" fill="#5b7488">Detailed architecture · numbered relationships below</text>
<polyline points="790.0,65.0 792.7,65.0 795.3,65.0 798.0,65.0 800.7,65.0 803.3,65.0 806.0,65.0 808.7,65.0 811.3,65.0 814.0,65.0 816.7,65.0 819.3,65.0 822.0,65.0 824.7,65.0 827.3,65.0 830.0,65.0 832.7,62.0 835.3,59.8 838.0,59.0 840.7,59.8 843.3,62.0 846.0,65.0 848.7,68.0 851.3,70.2 854.0,71.0 856.7,70.2 859.3,68.0 862.0,65.0 864.7,62.0 867.3,59.8 870.0,59.0 872.7,59.8 875.3,62.0 878.0,65.0 880.7,54.8 883.3,46.2 886.0,40.7 888.7,39.0 891.3,41.5 894.0,47.8 896.7,56.8 899.3,65.0 902.0,65.0 904.7,65.0 907.3,65.0 910.0,65.0 912.7,65.0 915.3,65.0 918.0,65.0 920.7,65.0 923.3,65.0 926.0,65.0 928.7,65.0 931.3,65.0 934.0,65.0 936.7,65.0 939.3,65.0 942.0,65.0 944.7,65.0 947.3,65.0 950.0,65.0" fill="none" stroke="#7eb8d2" stroke-opacity="0.9" stroke-width="2" stroke-linejoin="round"/>
<rect x="220" y="98" width="560" height="98" rx="12" fill="#ffffff" stroke="#173147" stroke-opacity="0.16" stroke-width="1.25" filter="url(#fp-shadow)"/><path d="M220 110 A12 12 0 0 1 232 98 L768 98 A12 12 0 0 1 780 110 L780 145 L220 145 Z" fill="url(#fp-header)"/><circle cx="241" cy="122" r="4.5" fill="#aedbec" stroke="#ffffff" stroke-opacity="0.85" stroke-width="1.2"/><text x="260" y="127" font-family="'Segoe UI', system-ui, -apple-system, 'Helvetica Neue', sans-serif" font-size="21" fill="#ffffff" font-weight="600">Temporal context</text><text x="238" y="173" font-family="'Segoe UI', system-ui, -apple-system, 'Helvetica Neue', sans-serif" font-size="18" fill="#173147">Flatten channel-wise context to one waveform.</text>
<rect x="220" y="322" width="560" height="122" rx="12" fill="#ffffff" stroke="#173147" stroke-opacity="0.16" stroke-width="1.25" filter="url(#fp-shadow)"/><path d="M220 334 A12 12 0 0 1 232 322 L768 322 A12 12 0 0 1 780 334 L780 369 L220 369 Z" fill="url(#fp-header)"/><circle cx="241" cy="346" r="4.5" fill="#aedbec" stroke="#ffffff" stroke-opacity="0.85" stroke-width="1.2"/><text x="260" y="351" font-family="'Segoe UI', system-ui, -apple-system, 'Helvetica Neue', sans-serif" font-size="21" fill="#ffffff" font-weight="600">Complex STFT</text><text x="238" y="397" font-family="'Segoe UI', system-ui, -apple-system, 'Helvetica Neue', sans-serif" font-size="18" fill="#173147">Retain complex coefficients and cropped frequency/time</text><text x="238" y="421" font-family="'Segoe UI', system-ui, -apple-system, 'Helvetica Neue', sans-serif" font-size="18" fill="#173147">geometry.</text>
<rect x="220" y="570" width="560" height="122" rx="12" fill="#ffffff" stroke="#173147" stroke-opacity="0.16" stroke-width="1.25" filter="url(#fp-shadow)"/><path d="M220 582 A12 12 0 0 1 232 570 L768 570 A12 12 0 0 1 780 582 L780 617 L220 617 Z" fill="url(#fp-header)"/><circle cx="241" cy="594" r="4.5" fill="#aedbec" stroke="#ffffff" stroke-opacity="0.85" stroke-width="1.2"/><text x="260" y="599" font-family="'Segoe UI', system-ui, -apple-system, 'Helvetica Neue', sans-serif" font-size="21" fill="#ffffff" font-weight="600">Magnitude patches</text><text x="238" y="645" font-family="'Segoe UI', system-ui, -apple-system, 'Helvetica Neue', sans-serif" font-size="18" fill="#173147">log(1 + magnitude), non-overlapping patches and token</text><text x="238" y="669" font-family="'Segoe UI', system-ui, -apple-system, 'Helvetica Neue', sans-serif" font-size="18" fill="#173147">projection.</text>
<rect x="220" y="818" width="560" height="122" rx="12" fill="#ffffff" stroke="#173147" stroke-opacity="0.16" stroke-width="1.25" filter="url(#fp-shadow)"/><path d="M220 830 A12 12 0 0 1 232 818 L768 818 A12 12 0 0 1 780 830 L780 865 L220 865 Z" fill="url(#fp-header)"/><circle cx="241" cy="842" r="4.5" fill="#aedbec" stroke="#ffffff" stroke-opacity="0.85" stroke-width="1.2"/><text x="260" y="847" font-family="'Segoe UI', system-ui, -apple-system, 'Helvetica Neue', sans-serif" font-size="21" fill="#ffffff" font-weight="600">Masked-token encoder</text><text x="238" y="893" font-family="'Segoe UI', system-ui, -apple-system, 'Helvetica Neue', sans-serif" font-size="18" fill="#173147">Replace masked tokens, add positions and apply</text><text x="238" y="917" font-family="'Segoe UI', system-ui, -apple-system, 'Helvetica Neue', sans-serif" font-size="18" fill="#173147">pre-norm Transformer blocks.</text>
<rect x="220" y="1066" width="560" height="122" rx="12" fill="#ffffff" stroke="#173147" stroke-opacity="0.16" stroke-width="1.25" filter="url(#fp-shadow)"/><path d="M220 1078 A12 12 0 0 1 232 1066 L768 1066 A12 12 0 0 1 780 1078 L780 1113 L220 1113 Z" fill="url(#fp-header)"/><circle cx="241" cy="1090" r="4.5" fill="#aedbec" stroke="#ffffff" stroke-opacity="0.85" stroke-width="1.2"/><text x="260" y="1095" font-family="'Segoe UI', system-ui, -apple-system, 'Helvetica Neue', sans-serif" font-size="21" fill="#ffffff" font-weight="600">Magnitude head</text><text x="238" y="1141" font-family="'Segoe UI', system-ui, -apple-system, 'Helvetica Neue', sans-serif" font-size="18" fill="#173147">Decode patch log-magnitudes; expm1 and non-negative</text><text x="238" y="1165" font-family="'Segoe UI', system-ui, -apple-system, 'Helvetica Neue', sans-serif" font-size="18" fill="#173147">clamp.</text>
<rect x="220" y="1314" width="560" height="122" rx="12" fill="#ffffff" stroke="#173147" stroke-opacity="0.16" stroke-width="1.25" filter="url(#fp-shadow)"/><path d="M220 1326 A12 12 0 0 1 232 1314 L768 1314 A12 12 0 0 1 780 1326 L780 1361 L220 1361 Z" fill="url(#fp-header)"/><circle cx="241" cy="1338" r="4.5" fill="#aedbec" stroke="#ffffff" stroke-opacity="0.85" stroke-width="1.2"/><text x="260" y="1343" font-family="'Segoe UI', system-ui, -apple-system, 'Helvetica Neue', sans-serif" font-size="21" fill="#ffffff" font-weight="600">Spectral reconstruction</text><text x="238" y="1389" font-family="'Segoe UI', system-ui, -apple-system, 'Helvetica Neue', sans-serif" font-size="18" fill="#173147">Combine predicted magnitude with the retained noisy</text><text x="238" y="1413" font-family="'Segoe UI', system-ui, -apple-system, 'Helvetica Neue', sans-serif" font-size="18" fill="#173147">phase.</text>
<rect x="220" y="1562" width="560" height="122" rx="12" fill="#ffffff" stroke="#173147" stroke-opacity="0.16" stroke-width="1.25" filter="url(#fp-shadow)"/><path d="M220 1574 A12 12 0 0 1 232 1562 L768 1562 A12 12 0 0 1 780 1574 L780 1609 L220 1609 Z" fill="url(#fp-header)"/><circle cx="241" cy="1586" r="4.5" fill="#aedbec" stroke="#ffffff" stroke-opacity="0.85" stroke-width="1.2"/><text x="260" y="1591" font-family="'Segoe UI', system-ui, -apple-system, 'Helvetica Neue', sans-serif" font-size="21" fill="#ffffff" font-weight="600">Inverse STFT and centre</text><text x="238" y="1637" font-family="'Segoe UI', system-ui, -apple-system, 'Helvetica Neue', sans-serif" font-size="18" fill="#173147">Restore spectral padding; inverse STFT; select the centre</text><text x="238" y="1661" font-family="'Segoe UI', system-ui, -apple-system, 'Helvetica Neue', sans-serif" font-size="18" fill="#173147">waveform.</text>
<rect x="486.0" y="201.0" width="28" height="26" rx="7" fill="#eef6fb" stroke="#2f6d94" stroke-width="1"/><text x="500.0" y="220.0" font-family="'Segoe UI', system-ui, -apple-system, 'Helvetica Neue', sans-serif" font-size="17" fill="#173147" font-weight="600" text-anchor="middle">1</text>
<rect x="473.0" y="449.0" width="28" height="26" rx="7" fill="#eef6fb" stroke="#2f6d94" stroke-width="1"/><text x="487.0" y="468.0" font-family="'Segoe UI', system-ui, -apple-system, 'Helvetica Neue', sans-serif" font-size="17" fill="#173147" font-weight="600" text-anchor="middle">2</text>
<rect x="486.0" y="697.0" width="28" height="26" rx="7" fill="#eef6fb" stroke="#2f6d94" stroke-width="1"/><text x="500.0" y="716.0" font-family="'Segoe UI', system-ui, -apple-system, 'Helvetica Neue', sans-serif" font-size="17" fill="#173147" font-weight="600" text-anchor="middle">3</text>
<rect x="486.0" y="945.0" width="28" height="26" rx="7" fill="#eef6fb" stroke="#2f6d94" stroke-width="1"/><text x="500.0" y="964.0" font-family="'Segoe UI', system-ui, -apple-system, 'Helvetica Neue', sans-serif" font-size="17" fill="#173147" font-weight="600" text-anchor="middle">4</text>
<rect x="486.0" y="1193.0" width="28" height="26" rx="7" fill="#eef6fb" stroke="#2f6d94" stroke-width="1"/><text x="500.0" y="1212.0" font-family="'Segoe UI', system-ui, -apple-system, 'Helvetica Neue', sans-serif" font-size="17" fill="#173147" font-weight="600" text-anchor="middle">5</text>
<rect x="486.0" y="1441.0" width="28" height="26" rx="7" fill="#eef6fb" stroke="#2f6d94" stroke-width="1"/><text x="500.0" y="1460.0" font-family="'Segoe UI', system-ui, -apple-system, 'Helvetica Neue', sans-serif" font-size="17" fill="#173147" font-weight="600" text-anchor="middle">6</text>
<rect x="16" y="867.0" width="28" height="26" rx="7" fill="#eef6fb" stroke="#2f6d94" stroke-width="1"/><text x="30" y="886.0" font-family="'Segoe UI', system-ui, -apple-system, 'Helvetica Neue', sans-serif" font-size="17" fill="#173147" font-weight="600" text-anchor="middle">7</text>
<text x="60" y="1814" font-family="'Segoe UI', system-ui, -apple-system, 'Helvetica Neue', sans-serif" font-size="23" fill="#173147" font-weight="600">Relationships</text>
<rect x="60" y="1828" width="28" height="26" rx="7" fill="#eef6fb" stroke="#2f6d94" stroke-width="1"/><text x="74" y="1847" font-family="'Segoe UI', system-ui, -apple-system, 'Helvetica Neue', sans-serif" font-size="17" fill="#173147" font-weight="600" text-anchor="middle">1</text>
<text x="100" y="1846" font-family="'Segoe UI', system-ui, -apple-system, 'Helvetica Neue', sans-serif" font-size="18" fill="#173147">Temporal context → Complex STFT · flow</text>
<rect x="60" y="1865" width="28" height="26" rx="7" fill="#eef6fb" stroke="#2f6d94" stroke-width="1"/><text x="74" y="1884" font-family="'Segoe UI', system-ui, -apple-system, 'Helvetica Neue', sans-serif" font-size="17" fill="#173147" font-weight="600" text-anchor="middle">2</text>
<text x="100" y="1883" font-family="'Segoe UI', system-ui, -apple-system, 'Helvetica Neue', sans-serif" font-size="18" fill="#173147">Complex STFT → Magnitude patches · flow</text>
<rect x="60" y="1902" width="28" height="26" rx="7" fill="#eef6fb" stroke="#2f6d94" stroke-width="1"/><text x="74" y="1921" font-family="'Segoe UI', system-ui, -apple-system, 'Helvetica Neue', sans-serif" font-size="17" fill="#173147" font-weight="600" text-anchor="middle">3</text>
<text x="100" y="1920" font-family="'Segoe UI', system-ui, -apple-system, 'Helvetica Neue', sans-serif" font-size="18" fill="#173147">Magnitude patches → Masked-token encoder · flow</text>
<rect x="60" y="1939" width="28" height="26" rx="7" fill="#eef6fb" stroke="#2f6d94" stroke-width="1"/><text x="74" y="1958" font-family="'Segoe UI', system-ui, -apple-system, 'Helvetica Neue', sans-serif" font-size="17" fill="#173147" font-weight="600" text-anchor="middle">4</text>
<text x="100" y="1957" font-family="'Segoe UI', system-ui, -apple-system, 'Helvetica Neue', sans-serif" font-size="18" fill="#173147">Masked-token encoder → Magnitude head · flow</text>
<rect x="60" y="1976" width="28" height="26" rx="7" fill="#eef6fb" stroke="#2f6d94" stroke-width="1"/><text x="74" y="1995" font-family="'Segoe UI', system-ui, -apple-system, 'Helvetica Neue', sans-serif" font-size="17" fill="#173147" font-weight="600" text-anchor="middle">5</text>
<text x="100" y="1994" font-family="'Segoe UI', system-ui, -apple-system, 'Helvetica Neue', sans-serif" font-size="18" fill="#173147">Magnitude head → Spectral reconstruction · flow</text>
<rect x="60" y="2013" width="28" height="26" rx="7" fill="#eef6fb" stroke="#2f6d94" stroke-width="1"/><text x="74" y="2032" font-family="'Segoe UI', system-ui, -apple-system, 'Helvetica Neue', sans-serif" font-size="17" fill="#173147" font-weight="600" text-anchor="middle">6</text>
<text x="100" y="2031" font-family="'Segoe UI', system-ui, -apple-system, 'Helvetica Neue', sans-serif" font-size="18" fill="#173147">Spectral reconstruction → Inverse STFT and centre · flow</text>
<rect x="60" y="2050" width="28" height="26" rx="7" fill="#eef6fb" stroke="#2f6d94" stroke-width="1"/><text x="74" y="2069" font-family="'Segoe UI', system-ui, -apple-system, 'Helvetica Neue', sans-serif" font-size="17" fill="#173147" font-weight="600" text-anchor="middle">7</text>
<text x="100" y="2068" font-family="'Segoe UI', system-ui, -apple-system, 'Helvetica Neue', sans-serif" font-size="18" fill="#173147">Complex STFT → Spectral reconstruction · skip: Noisy phase</text>
<text x="60" y="2119" font-family="'Segoe UI', system-ui, -apple-system, 'Helvetica Neue', sans-serif" font-size="23" fill="#173147" font-weight="600">Reading notes</text>
<text x="60" y="2151" font-family="'Segoe UI', system-ui, -apple-system, 'Helvetica Neue', sans-serif" font-size="18" fill="#173147">Magnitude and complex-mask variants have different output heads.</text>
<text x="60" y="2185" font-family="'Segoe UI', system-ui, -apple-system, 'Helvetica Neue', sans-serif" font-size="18" fill="#173147">Dimensions and repeated-block counts are configurable; consult the linked implementation and</text>
<text x="60" y="2210" font-family="'Segoe UI', system-ui, -apple-system, 'Helvetica Neue', sans-serif" font-size="18" fill="#173147">run configuration.</text>
<text x="60" y="2262" font-family="'Segoe UI', system-ui, -apple-system, 'Helvetica Neue', sans-serif" font-size="23" fill="#173147" font-weight="600">Implementation sources</text>
<text x="60" y="2292" font-family="'Segoe UI', system-ui, -apple-system, 'Helvetica Neue', sans-serif" font-size="17" fill="#2f6d94">Variant implementation and forward contract:</text>
<text x="60" y="2316" font-family="'Segoe UI', system-ui, -apple-system, 'Helvetica Neue', sans-serif" font-size="17" fill="#2f6d94">src/facet/models/masterthesis/vit_spectrogram/training.py</text>
<text x="60" y="2340" font-family="'Segoe UI', system-ui, -apple-system, 'Helvetica Neue', sans-serif" font-size="17" fill="#2f6d94">Pipeline input/output adapter: src/facet/models/masterthesis/vit_spectrogram/processor.py</text>
<text x="980" y="2390" font-family="'Segoe UI', system-ui, -apple-system, 'Helvetica Neue', sans-serif" font-size="11" fill="#5b7488" text-anchor="end" fill-opacity="0.8">Made with FACETpy</text>
</svg>
